<?xml version="1.0" standalone="no"?>
<!DOCTYPE svg PUBLIC "-//W3C//DTD SVG 20010904//EN"
 "http://www.w3.org/TR/2001/REC-SVG-20010904/DTD/svg10.dtd">
<svg version="1.0" xmlns="http://www.w3.org/2000/svg"
 width="512.000000pt" height="512.000000pt" viewBox="0 0 512.000000 512.000000"
 preserveAspectRatio="xMidYMid meet">

<g transform="translate(0.000000,512.000000) scale(0.100000,-0.100000)"
fill="#000000" stroke="none">
<path d="M2465 5045 l-25 -24 0 -231 0 -231 25 -24 c15 -16 36 -25 55 -25 19
0 40 9 55 25 l25 24 0 231 0 231 -25 24 c-15 16 -36 25 -55 25 -19 0 -40 -9
-55 -25z"/>
<path d="M625 4275 c-17 -16 -25 -35 -25 -57 0 -30 18 -50 172 -201 183 -178
219 -207 256 -207 34 0 72 43 72 82 0 30 -18 50 -172 201 -95 92 -186 177
-203 188 -40 26 -71 24 -100 -6z"/>
<path d="M4253 4094 c-231 -200 -253 -222 -253 -259 0 -42 36 -75 81 -75 30 0
58 21 219 161 102 88 193 169 203 180 42 50 5 129 -61 129 -26 0 -58 -23 -189
-136z"/>
<path d="M2425 4179 c-488 -37 -950 -310 -1227 -723 -311 -466 -330 -1057 -48
-1549 57 -100 125 -189 236 -309 216 -234 319 -466 331 -750 l6 -128 -62 0
c-52 0 -66 -4 -86 -25 -33 -32 -33 -78 0 -110 23 -23 31 -25 130 -25 l105 0 0
-230 0 -231 26 -24 27 -25 697 0 697 0 27 26 26 27 0 228 0 229 105 0 c99 0
107 2 130 25 33 32 33 78 0 110 -21 22 -33 25 -95 25 l-70 0 0 94 c0 172 44
346 126 495 50 92 94 150 202 269 241 264 365 495 429 792 26 123 26 450 -1
570 -43 198 -119 379 -228 541 -82 123 -291 333 -414 416 -229 156 -518 260
-769 278 -162 11 -202 12 -300 4z m343 -170 c533 -65 1001 -443 1167 -942 46
-140 65 -258 65 -413 0 -364 -124 -659 -404 -962 -127 -137 -190 -228 -256
-364 -82 -170 -120 -335 -120 -519 l0 -89 -669 0 -668 0 -6 138 c-8 190 -47
342 -130 507 -59 118 -121 206 -247 345 -62 69 -134 157 -160 195 -235 347
-293 792 -155 1175 176 485 647 859 1170 929 141 19 258 19 413 0z m382 -3624
l0 -175 -590 0 -590 0 0 175 0 175 590 0 590 0 0 -175z"/>
<path d="M2245 3791 c-50 -23 -109 -84 -130 -133 -21 -51 -19 -153 3 -203 14
-31 16 -46 8 -67 -9 -26 -12 -27 -56 -20 -90 14 -272 7 -330 -12 -165 -55
-250 -168 -250 -332 0 -132 43 -253 144 -409 31 -47 56 -87 56 -89 0 -2 -26
-4 -58 -4 -69 0 -115 -17 -167 -63 -109 -96 -112 -274 -6 -373 26 -25 31 -37
31 -77 0 -111 74 -224 181 -278 89 -44 154 -55 309 -48 l135 6 39 -74 c77
-145 176 -245 284 -286 77 -28 186 -24 257 11 95 46 216 184 280 321 17 35 18
36 59 28 61 -12 227 -11 288 2 168 36 276 146 294 303 6 51 12 64 42 90 109
96 107 278 -3 375 -55 48 -99 63 -178 63 -37 -1 -65 2 -63 6 3 4 29 45 60 91
64 96 112 205 132 300 19 90 18 138 -6 214 -38 124 -151 212 -305 238 -65 11
-252 7 -287 -6 -10 -4 -26 17 -54 71 -98 191 -252 314 -394 314 -27 0 -52 5
-56 11 -28 46 -185 64 -259 30z m170 -166 c19 -18 25 -35 25 -65 0 -56 -34
-90 -90 -90 -56 0 -90 34 -90 90 0 56 34 90 90 90 30 0 47 -6 65 -25z m223
-59 c41 -21 124 -113 161 -179 18 -32 31 -60 29 -62 -2 -2 -39 -17 -83 -33
-44 -17 -106 -41 -138 -56 l-59 -26 -46 24 c-26 13 -76 34 -112 47 l-65 24 55
6 c67 7 103 25 152 76 45 46 68 98 68 153 0 45 1 45 38 26z m-617 -352 l35 -6
-23 -87 c-12 -47 -30 -132 -39 -188 l-17 -101 -88 -88 c-58 -58 -92 -85 -98
-79 -25 25 -104 176 -121 234 -66 210 17 316 250 320 36 0 81 -2 101 -5z
m1334 -29 c92 -45 122 -125 91 -246 -20 -78 -51 -147 -100 -224 l-37 -57 -87
83 c-48 46 -90 91 -94 99 -3 8 -12 53 -18 100 -7 47 -24 125 -36 173 -13 49
-24 90 -24 92 0 9 63 13 153 10 82 -3 107 -8 152 -30z m-1055 -41 c39 -15 69
-28 68 -29 -9 -9 -190 -125 -194 -125 -4 0 -3 17 0 38 11 57 39 142 47 142 4
0 40 -12 79 -26z m612 -42 c9 -34 19 -75 23 -92 l7 -31 -101 67 c-56 37 -99
69 -97 72 9 9 131 51 141 48 6 -1 17 -30 27 -64z m-251 -132 c105 -63 244
-160 292 -203 l27 -26 0 -205 c0 -112 -3 -212 -6 -220 -14 -36 -381 -286 -420
-286 -22 0 -222 123 -324 200 -95 71 -95 71 -102 123 -8 68 -8 288 0 352 7 50
8 50 112 129 97 72 294 196 312 196 4 0 53 -27 109 -60z m-703 -471 l-3 -31
-28 30 -28 29 28 34 28 33 3 -32 c2 -18 2 -46 0 -63z m1221 2 c-12 -17 -26
-31 -31 -31 -4 0 -8 28 -8 62 l0 63 31 -32 31 -31 -23 -31z m-1486 -161 c34
-27 43 -70 23 -109 -20 -37 -44 -51 -89 -51 -45 0 -87 46 -87 94 0 74 92 114
153 66z m1862 -6 c52 -56 12 -154 -62 -154 -45 0 -69 14 -89 51 -32 63 13 129
88 129 29 0 45 -7 63 -26z m-319 -67 c1 -111 77 -211 182 -240 23 -6 42 -16
42 -22 0 -5 -9 -29 -19 -52 -23 -49 -75 -87 -143 -103 -44 -11 -230 -11 -241
0 -3 3 8 58 23 123 16 65 32 146 36 180 7 57 11 66 62 119 30 32 55 58 56 58
1 0 1 -28 2 -63z m-1243 -140 c10 -56 28 -141 40 -189 l23 -87 -20 -5 c-42
-11 -194 -6 -244 9 -57 17 -105 53 -127 96 -26 48 -20 66 24 73 98 15 193 129
195 234 l1 49 46 -39 c46 -38 46 -39 62 -141z m290 -129 c52 -34 83 -60 75
-63 -48 -18 -132 -45 -139 -45 -8 0 -33 80 -45 144 -5 32 -4 37 7 30 8 -4 54
-34 102 -66z m653 55 c-3 -10 -13 -49 -22 -86 -9 -38 -22 -71 -29 -73 -14 -6
-137 38 -136 49 0 9 171 125 184 126 5 1 6 -7 3 -16z m-305 -242 c35 -15 94
-39 132 -52 75 -27 74 -23 24 -108 -41 -70 -117 -148 -161 -166 -49 -21 -110
-19 -155 4 -50 26 -129 113 -168 188 l-32 60 55 17 c31 10 90 33 132 51 43 19
84 34 93 34 9 1 45 -12 80 -28z"/>
<path d="M2445 2757 c-163 -78 -194 -298 -60 -416 52 -45 98 -63 165 -63 99 0
177 46 224 132 53 98 35 220 -45 298 -50 50 -86 65 -164 69 -59 3 -78 0 -120
-20z m156 -147 c28 -16 51 -67 44 -99 -17 -79 -126 -102 -169 -36 -39 59 4
145 71 145 19 0 43 -5 54 -10z"/>
</g>
</svg>
